# xmcd
#
# Track frame offsets:
#	150
#	22134
#	43213
#	66482
#	85791
#	103686
#	125698
#	142611
#	178262
#	194214
#
# Disc length: 2833 seconds
#
# Revision: 0
# Processed by: cddbd v1.5.1PL2 Copyright (c) Steve Scherf et al.
# Submitted via: audiograbber 1.83.01
#
DISCID=990b0f0a
DTITLE=Bottle Up and Go! - Live At Reigen
DYEAR=2006
DGENRE=Blues
TTITLE0=Big City
TTITLE1=Parachute Woman
TTITLE2=Catfish
TTITLE3=Honey Trap
TTITLE4=Still Wonder
TTITLE5=Roadhouse Blues
TTITLE6=Dangerous Man
TTITLE7=Redhouse
TTITLE8=Messin' With The Kid
TTITLE9=Prodigal Son
EXTD=
EXTT0=
EXTT1=
EXTT2=
EXTT3=
EXTT4=
EXTT5=
EXTT6=
EXTT7=
EXTT8=
EXTT9=
PLAYORDER=
